<svg xmlns="http://www.w3.org/2000/svg" viewBox="0 0 111.32 111.63"><defs><style>.cls-1{fill:#5f6d7f;}.cls-2{fill:#df3d38;}.cls-3{fill:#fff;}</style></defs><title>Asset 4</title><g id="Layer_2" data-name="Layer 2"><g id="Layer_1-2" data-name="Layer 1"><path class="cls-1" d="M111.32,101c0,2.43-4.88,10.59-10.29,10.59H4.39A4.4,4.4,0,0,1,0,107.24V10.93C0,5,5.65,0,10,0H50.29L101,6.2a4.4,4.4,0,0,1,4.4,4.4Z"/><path class="cls-2" d="M10.28,0h96.64a4.4,4.4,0,0,1,4.4,4.4V101a4.4,4.4,0,0,1-4.4,4.4H10.28A4.39,4.39,0,0,1,5.89,101V4.39A4.39,4.39,0,0,1,10.28,0Z"/><polygon class="cls-3" points="64.05 60.79 64.05 87.92 50.28 87.92 50.28 60.79 23.14 60.79 23.14 47.02 50.28 47.02 50.27 19.89 64.05 19.88 64.05 47.02 91.17 47.01 91.17 60.79 64.05 60.79"/></g></g></svg>