<svg xmlns="http://www.w3.org/2000/svg" width="22" height="22" viewBox="0 0 22 22">
    <g fill="none" fill-rule="evenodd">
        <g fill="#262D57" fill-rule="nonzero">
            <g>
                <path d="M21.852.269L16.285.269 10.718 6.446 5.121.27 0 .27 0 21.68 4.572 21.68 4.572 7.846 10.472 13.811 10.954 13.794zM19.988 11c-.537 0-1.003-.197-1.397-.592-.394-.393-.591-.858-.591-1.394 0-.537.197-1.007.592-1.41.392-.403.858-.604 1.395-.604.554 0 1.027.2 1.422.603.393.403.591.872.591 1.41 0 .536-.198 1.001-.592 1.396-.372.384-.886.598-1.421.59M19.972 13.49c-.688.006-1.366-.16-1.972-.485V22h4v-9c-.625.33-1.322.497-2.028.49" transform="translate(-18 -17) translate(18 17)"/>
            </g>
        </g>
    </g>
</svg>
