<?xml version="1.0" encoding="UTF-8"?>
<svg width="164px" height="28px" viewBox="0 0 164 28" version="1.1" xmlns="http://www.w3.org/2000/svg" xmlns:xlink="http://www.w3.org/1999/xlink">
    <!-- Generator: Sketch 54 (76480) - https://sketchapp.com -->
    <title>logo</title>
    <desc>Created with Sketch.</desc>
    <defs>
        <polygon id="path-1" points="0.125 0.269 13.89 0.269 13.89 21.681 0.125 21.681"></polygon>
        <polygon id="path-3" points="0.05 0.18 10.64 0.18 10.64 14.68 0.05 14.68"></polygon>
        <polygon id="path-5" points="0 0.269 21.852 0.269 21.852 21.681 0 21.681"></polygon>
    </defs>
    <g id="Symbols" stroke="none" stroke-width="1" fill="none" fill-rule="evenodd">
        <g id="top_menu" transform="translate(-250.000000, -16.000000)">
            <g id="logo" transform="translate(250.000000, 16.000000)">
                <path d="M31.04,16.713 C31.827,17.489 32.829,17.877 34.045,17.877 C35.261,17.877 36.263,17.489 37.051,16.713 C37.838,15.938 38.232,14.945 38.232,13.736 C38.232,12.548 37.838,11.566 37.051,10.79 C36.263,10.015 35.261,9.627 34.045,9.627 C32.829,9.627 31.827,10.015 31.039,10.79 C30.252,11.566 29.858,12.548 29.858,13.736 C29.858,14.946 30.252,15.938 31.039,16.713 L31.04,16.713 Z M38.232,6.423 L42,6.423 L42,20.808 C42,23.145 41.238,24.928 39.712,26.157 C38.187,27.386 36.348,28 34.195,28 C32.58,28 31.159,27.688 29.933,27.063 C28.7292805,26.4606357 27.7419474,25.4998552 27.107,24.313 L30.397,22.41 C31.154,23.82 32.46,24.525 34.314,24.525 C35.53,24.525 36.487,24.203 37.185,23.558 C37.883,22.913 38.232,21.997 38.232,20.808 L38.232,19.176 C37.095,20.708 35.5,21.473 33.447,21.473 C31.334,21.473 29.564,20.723 28.138,19.221 C26.713,17.721 26,15.892 26,13.736 C26,11.601 26.718,9.778 28.153,8.266 C29.59,6.757 31.353,6 33.447,6 C35.5,6 37.095,6.766 38.232,8.297 L38.232,6.424 L38.232,6.423 Z" id="Shape" fill="#000" fill-rule="nonzero"></path>
                <g id="Group" transform="translate(45.000000, 0.000000)">
                    <g id="Clipped">
                        <mask id="mask-2" fill="white">
                            <use xlink:href="#path-1"></use>
                        </mask>
                        <g id="a"></g>
                        <path d="M8.32,5.958 C9.93,5.958 11.262,6.519 12.313,7.641 C13.364,8.762 13.89,10.312 13.89,12.29 L13.89,21.68 L10.088,21.68 L10.088,12.78 C10.088,11.76 9.823,10.98 9.292,10.439 C8.762,9.899 8.054,9.629 7.17,9.629 C6.187,9.629 5.401,9.945 4.811,10.577 C4.222,11.209 3.928,12.157 3.928,13.421 L3.928,21.681 L0.125,21.681 L0.125,0.269 L3.928,0.269 L3.928,8.099 C4.851,6.672 6.315,5.959 8.319,5.959" id="Path" fill="#000" fill-rule="nonzero" mask="url(#mask-2)"></path>
                    </g>
                </g>
                <path d="M70,9.788 L65.978,9.788 L65.978,15.924 C65.978,16.434 66.111,16.808 66.379,17.044 C66.646,17.281 67.037,17.414 67.551,17.443 C68.064,17.472 68.701,17.468 69.463,17.428 L69.463,20.879 C66.729,21.174 64.801,20.928 63.681,20.142 C62.56,19.355 62,17.949 62,15.924 L62,3.15 L65.978,2 L65.978,6.13 L68.582,6.13 L70,9.788 Z M82.754,6 L87,6 L81.39,21.014 C80.59,23.154 79.53,24.71 78.21,25.68 C76.888,26.65 75.243,27.085 73.277,26.986 L73.277,23.388 C74.343,23.408 75.19,23.188 75.815,22.728 C76.441,22.268 76.939,21.529 77.308,20.51 L71,6 L75.338,6 L79.351,16.075 L82.754,6 Z M109.486,19.576 C110.908,19.576 112.104,19.091 113.072,18.121 C114.04,17.151 114.523,15.945 114.523,14.5 C114.523,13.055 114.04,11.848 113.072,10.878 C112.104,9.908 110.908,9.424 109.486,9.424 C108.081,9.424 106.896,9.908 105.928,10.878 C104.96,11.848 104.476,13.055 104.476,14.5 C104.476,15.945 104.96,17.152 105.928,18.121 C106.896,19.091 108.081,19.576 109.486,19.576 L109.486,19.576 Z M114.808,19.832 C113.347,21.277 111.573,22 109.486,22 C107.398,22 105.629,21.277 104.177,19.832 C102.726,18.388 102,16.61 102,14.5 C102,12.39 102.726,10.612 104.177,9.167 C105.63,7.723 107.397,7 109.486,7 C111.573,7 113.346,7.723 114.808,9.167 C116.27,10.612 117,12.39 117,14.5 C117,16.61 116.27,18.388 114.808,19.832 L114.808,19.832 Z M122.506,10.558 C123.331,8.852 124.83,8 127,8 L127,10.503 C125.771,10.448 124.715,10.76 123.831,11.438 C122.948,12.116 122.506,13.208 122.506,14.711 L122.506,22 L120,22 L120,8.247 L122.506,8.247 L122.506,10.557 L122.506,10.558 Z M144.577,7 C146.192,7 147.5,7.531 148.5,8.594 C149.5,9.656 150,11.094 150,12.906 L150,22 L147.49,22 L147.49,12.994 C147.49,11.864 147.202,10.987 146.625,10.363 C146.048,9.739 145.278,9.427 144.317,9.427 C143.24,9.427 142.38,9.792 141.736,10.523 C141.091,11.254 140.769,12.371 140.769,13.872 L140.769,22 L138.259,22 L138.259,12.994 C138.259,11.864 137.986,10.987 137.437,10.363 C136.89,9.739 136.144,9.427 135.202,9.427 C134.144,9.427 133.264,9.797 132.562,10.538 C131.86,11.279 131.51,12.391 131.51,13.872 L131.51,22 L129,22 L129,7.38 L131.51,7.38 L131.51,9.34 C132.49,7.78 133.922,7 135.807,7 C137.75,7 139.163,7.83 140.047,9.485 C141.047,7.829 142.557,7 144.577,7 L144.577,7 Z" id="Shape" fill="#000" fill-rule="nonzero"></path>
                <g id="Group" transform="translate(153.000000, 7.000000)">
                    <g id="Clipped">
                        <mask id="mask-4" fill="white">
                            <use xlink:href="#path-3"></use>
                        </mask>
                        <g id="c"></g>
                        <path d="M2.958,4.22 C2.958,4.74 3.228,5.158 3.766,5.472 C4.304,5.787 4.946,6.054 5.692,6.274 L7.941,6.938 C8.695,7.161 9.333,7.578 9.855,8.189 C10.378,8.801 10.639,9.586 10.639,10.545 C10.639,11.795 10.159,12.796 9.199,13.55 C8.239,14.303 7.009,14.68 5.509,14.68 C4.174,14.68 3.031,14.386 2.08,13.797 C1.13,13.21 0.452,12.428 0.05,11.455 L2.108,10.27 C2.327,10.93 2.738,11.455 3.342,11.84 C3.945,12.226 4.668,12.42 5.509,12.42 C6.295,12.42 6.944,12.268 7.457,11.965 C7.969,11.663 8.225,11.19 8.225,10.548 C8.225,10.016 7.959,9.59 7.428,9.268 C6.898,8.947 6.259,8.675 5.514,8.45 L3.265,7.77 C2.52226851,7.54941153 1.85568087,7.12625823 1.34,6.548 C0.81,5.96 0.543,5.206 0.543,4.288 C0.543,3.093 1.005,2.11 1.929,1.338 C2.852,0.566 4.01,0.181 5.4,0.181 C6.516,0.181 7.508,0.433 8.377,0.938 C9.22963865,1.426349 9.91383739,2.16215907 10.339,3.048 L8.336,4.178 C7.84,3.002 6.862,2.413 5.399,2.413 C4.722,2.413 4.146,2.57 3.671,2.885 C3.195,3.2 2.958,3.644 2.958,4.219" id="Path" fill="#000" fill-rule="nonzero" mask="url(#mask-4)"></path>
                    </g>
                </g>
                <path d="M100.575,10 L92.538,10 L92.538,3.514 L101,3.514 L101,1 L90,1 L90,21 L92.538,21 L92.538,12.515 L99.976,12.515 C100.076,11.628 100.271,10.788 100.575,10" id="Path" fill="#000" fill-rule="nonzero"></path>
                <g id="Clipped">
                    <mask id="mask-6" fill="white">
                        <use xlink:href="#path-5"></use>
                    </mask>
                    <g id="e"></g>
                    <polygon id="Path" fill="#000" fill-rule="nonzero" mask="url(#mask-6)" points="21.852 0.269 16.285 0.269 10.718 6.446 5.121 0.27 0 0.27 0 21.68 4.572 21.68 4.572 7.846 10.472 13.811 10.954 13.794"></polygon>
                </g>
                <path d="M19.9875975,10.9998083 C19.4506901,10.9998083 18.984997,10.8030177 18.5913183,10.4078366 C18.1968394,10.0150555 18,9.55027775 18,9.01350348 C18,8.47672921 18.1968394,8.00715172 18.5921184,7.60397105 C18.9841968,7.20079037 19.44989,7 19.9867974,7 C20.5405081,7 21.0142028,7.20079037 21.4086817,7.60317109 C21.8023605,8.00635176 22,8.47512929 22,9.01270352 C22,9.54867783 21.8023605,10.0142555 21.4078816,10.4086366 C21.0361276,10.7933719 20.5218106,11.007328 19.9867974,10.9998083 M19.972,13.49 C19.2844412,13.4958731 18.6064008,13.3291137 18,13.005 L18,22 L22,22 L22,13 C21.3751244,13.3290627 20.6781842,13.4974555 19.972,13.49" id="Shape" fill="#000" fill-rule="nonzero"></path>
            </g>
        </g>
    </g>
</svg>